<svg id="visual" viewBox="0 0 900 600" width="900" height="600" xmlns="http://www.w3.org/2000/svg" xmlns:xlink="http://www.w3.org/1999/xlink" version="1.1"><rect x="0" y="0" width="900" height="600" fill="#CBA075"></rect><defs><linearGradient id="grad1_0" x1="33.3%" y1="0%" x2="100%" y2="100%"><stop offset="20%" stop-color="#cba075" stop-opacity="1"></stop><stop offset="80%" stop-color="#cba075" stop-opacity="1"></stop></linearGradient></defs><defs><linearGradient id="grad2_0" x1="0%" y1="0%" x2="66.7%" y2="100%"><stop offset="20%" stop-color="#cba075" stop-opacity="1"></stop><stop offset="80%" stop-color="#cba075" stop-opacity="1"></stop></linearGradient></defs><g transform="translate(900, 0)"><path d="M0 405.6C-62.7 381.4 -125.4 357.3 -188.5 326.5C-251.6 295.7 -315 258.3 -351.3 202.8C-387.5 147.3 -396.6 73.6 -405.6 0L0 0Z" fill="#422719"></path></g><g transform="translate(0, 600)"><path d="M0 -405.6C55.8 -369.4 111.6 -333.3 175.5 -304C239.4 -274.7 311.6 -252.3 351.3 -202.8C391 -153.3 398.3 -76.7 405.6 0L0 0Z" fill="#422719"></path></g></svg>