<svg id="visual" viewBox="0 0 960 540" width="960" height="540" xmlns="http://www.w3.org/2000/svg" xmlns:xlink="http://www.w3.org/1999/xlink" version="1.1"><rect x="0" y="0" width="960" height="540" fill="#CBA075"></rect><defs><linearGradient id="grad1_0" x1="43.8%" y1="0%" x2="100%" y2="100%"><stop offset="14.444444444444446%" stop-color="#cba075" stop-opacity="1"></stop><stop offset="85.55555555555554%" stop-color="#cba075" stop-opacity="1"></stop></linearGradient></defs><defs><linearGradient id="grad2_0" x1="0%" y1="0%" x2="56.3%" y2="100%"><stop offset="14.444444444444446%" stop-color="#cba075" stop-opacity="1"></stop><stop offset="85.55555555555554%" stop-color="#cba075" stop-opacity="1"></stop></linearGradient></defs><g transform="translate(960, 0)"><path d="M0 420C-26.7 415.1 -53.3 410.2 -80.8 406C-108.2 401.9 -136.4 398.5 -160.3 387.1C-184.3 375.7 -203.9 356.2 -229.5 343.4C-255 330.6 -286.6 324.5 -305.5 305.5C-324.3 286.5 -330.5 254.5 -341.7 228.3C-352.9 202.2 -369.1 181.7 -382.5 158.4C-395.9 135.1 -406.5 109 -412.9 82.1C-419.4 55.3 -421.7 27.6 -424 0L0 0Z" fill="#422719"></path></g><g transform="translate(0, 540)"><path d="M0 -427C28.4 -428 56.9 -429 84.3 -423.7C111.7 -418.4 138.1 -406.8 163.4 -394.5C188.7 -382.2 213.1 -369.2 236.7 -354.2C260.3 -339.2 283.2 -322.3 301.2 -301.2C319.2 -280.1 332.4 -254.9 345.1 -230.6C357.8 -206.2 370 -182.8 382.5 -158.4C394.9 -134.1 407.6 -108.9 413.9 -82.3C420.2 -55.8 420.1 -27.9 420 0L0 0Z" fill="#422719"></path></g></svg>